<svg width="183" height="46" viewBox="0 0 183 46" fill="none" xmlns="http://www.w3.org/2000/svg">
<g clip-path="url(#clip0_2965_1045)">
<g clip-path="url(#clip1_2965_1045)">
<path d="M38.9805 19C40.1197 19 41.3104 19.3349 42.3115 20.0713C43.311 20.8066 44.3398 22.1492 44.3398 24C44.3398 25.8508 43.311 27.1934 42.3115 27.9287C41.3104 28.6651 40.1197 29 38.9805 29H25C26.1392 29 27.3299 28.6651 28.3311 27.9287C29.3305 27.1934 30.3594 25.8509 30.3594 24C30.3594 22.1491 29.3305 20.8066 28.3311 20.0713C27.3299 19.3349 26.1392 19 25 19H38.9805Z" fill="#A997FD"/>
<path d="M32.167 9C29.9142 9 27 10.6823 27 14C27 17.3177 29.9142 19 32.167 19H18.167C15.9142 19 13 17.3177 13 14C13 10.6823 15.9142 9 18.167 9H32.167Z" fill="#A997FD"/>
<g filter="url(#filter0_d_2965_1045)">
<path d="M32.167 29C29.9142 29 27 30.6823 27 34C27 37.3177 29.9142 39 32.167 39H18.167C15.9142 39 13 37.3177 13 34C13 30.6823 15.9142 29 18.167 29H32.167Z" fill="#A997FD"/>
</g>
</g>
<path d="M70.26 36H53.916V9.684H70.26V13.932H58.524V20.7H69.036V24.768H58.524V31.752H70.26V36ZM78.9998 36H74.6078V18.216H78.6758L79.0358 20.52C80.1518 18.72 82.3118 17.676 84.7238 17.676C89.1878 17.676 91.4918 20.448 91.4918 25.056V36H87.0998V26.1C87.0998 23.112 85.6238 21.672 83.3558 21.672C80.6558 21.672 78.9998 23.544 78.9998 26.424V36ZM94.7631 27.072C94.7631 21.528 98.7591 17.712 104.267 17.712C109.775 17.712 113.771 21.528 113.771 27.072C113.771 32.616 109.775 36.432 104.267 36.432C98.7591 36.432 94.7631 32.616 94.7631 27.072ZM99.1551 27.072C99.1551 30.312 101.243 32.508 104.267 32.508C107.291 32.508 109.379 30.312 109.379 27.072C109.379 23.832 107.291 21.636 104.267 21.636C101.243 21.636 99.1551 23.832 99.1551 27.072ZM124.56 36.468C119.412 36.468 116.208 32.688 116.208 27.18C116.208 21.636 119.448 17.676 124.812 17.676C127.296 17.676 129.492 18.72 130.608 20.484V9.216H134.964V36H130.932L130.644 33.228C129.564 35.28 127.26 36.468 124.56 36.468ZM125.532 32.436C128.592 32.436 130.572 30.24 130.572 27.036C130.572 23.832 128.592 21.6 125.532 21.6C122.472 21.6 120.6 23.868 120.6 27.036C120.6 30.204 122.472 32.436 125.532 32.436ZM150.701 18.144V22.212H149.081C145.913 22.212 143.933 23.904 143.933 27.36V36H139.541V18.252H143.681L143.933 20.844C144.689 19.08 146.381 17.892 148.757 17.892C149.369 17.892 149.981 17.964 150.701 18.144ZM161.033 36.468C155.741 36.468 152.033 32.616 152.033 27.108C152.033 21.528 155.669 17.676 160.889 17.676C166.217 17.676 169.601 21.24 169.601 26.784V28.116L156.209 28.152C156.533 31.284 158.189 32.868 161.105 32.868C163.517 32.868 165.101 31.932 165.605 30.24H169.673C168.917 34.128 165.677 36.468 161.033 36.468ZM160.925 21.276C158.333 21.276 156.749 22.68 156.317 25.344H165.245C165.245 22.896 163.553 21.276 160.925 21.276Z" fill="#252323"/>
</g>
<defs>
<filter id="filter0_d_2965_1045" x="13" y="-164" width="192.167" height="203" filterUnits="userSpaceOnUse" color-interpolation-filters="sRGB">
<feFlood flood-opacity="0" result="BackgroundImageFix"/>
<feColorMatrix in="SourceAlpha" type="matrix" values="0 0 0 0 0 0 0 0 0 0 0 0 0 0 0 0 0 0 127 0" result="hardAlpha"/>
<feOffset dx="124" dy="-144"/>
<feGaussianBlur stdDeviation="24.5"/>
<feComposite in2="hardAlpha" operator="out"/>
<feColorMatrix type="matrix" values="0 0 0 0 0 0 0 0 0 0 0 0 0 0 0 0 0 0 0.25 0"/>
<feBlend mode="normal" in2="BackgroundImageFix" result="effect1_dropShadow_2965_1045"/>
<feBlend mode="normal" in="SourceGraphic" in2="effect1_dropShadow_2965_1045" result="shape"/>
</filter>
<clipPath id="clip0_2965_1045">
<rect width="183" height="46" fill="white"/>
</clipPath>
<clipPath id="clip1_2965_1045">
<rect width="37" height="37" fill="white" transform="translate(9 4)"/>
</clipPath>
</defs>
</svg>
